<?xml version="1.0" encoding="us-ascii" standalone="no"?>
<svg xmlns="http://www.w3.org/2000/svg" contentStyleType="text/css"
     height="1114px" preserveAspectRatio="none" style="width:2095px;height:1114px;background:#FFFFFF;" version="1.1"
     viewBox="0 0 2095 1114" width="2095px" zoomAndPan="magnify">
    <defs/>
    <g>
        <text fill="#000000" font-family="sans-serif" font-size="14" font-weight="bold" lengthAdjust="spacing"
              text-decoration="underline" textLength="283" x="775" y="27.9951">Financial Report Service Prosumer :
        </text>
        <text fill="#000000" font-family="sans-serif" font-size="14" font-weight="bold" lengthAdjust="spacing"
              textLength="259" x="1063" y="27.9951">GetFinancialReportByIdAccount()
        </text>
        <rect fill="#FFFFFF" height="903.1172" style="stroke:#181818;stroke-width:1.0;" width="10" x="86" y="114.5938"/>
        <rect fill="#FFFFFF" height="881.9844" style="stroke:#181818;stroke-width:1.0;" width="10" x="322"
              y="135.7266"/>
        <rect fill="#FFFFFF" height="823.7188" style="stroke:#181818;stroke-width:1.0;" width="10" x="558"
              y="164.8594"/>
        <rect fill="#FFFFFF" height="87.3984" style="stroke:#181818;stroke-width:1.0;" width="10" x="787" y="218.125"/>
        <rect fill="#FFFFFF" height="87.3984" style="stroke:#181818;stroke-width:1.0;" width="10" x="787" y="336.6563"/>
        <rect fill="#FFFFFF" height="378.7266" style="stroke:#181818;stroke-width:1.0;" width="10" x="1029"
              y="455.1875"/>
        <rect fill="#FFFFFF" height="87.3984" style="stroke:#181818;stroke-width:1.0;" width="10" x="1276"
              y="865.0469"/>
        <rect fill="#FFFFFF" height="87.3984" style="stroke:#181818;stroke-width:1.0;" width="10" x="1474.5"
              y="484.3203"/>
        <rect fill="#FFFFFF" height="87.3984" style="stroke:#181818;stroke-width:1.0;" width="10" x="1668"
              y="600.8516"/>
        <rect fill="#FFFFFF" height="87.3984" style="stroke:#181818;stroke-width:1.0;" width="10" x="1668"
              y="717.3828"/>
        <rect fill="#FFFFFF" height="29.1328" style="stroke:#181818;stroke-width:1.0;" width="10" x="1807.5"
              y="247.2578"/>
        <rect fill="#FFFFFF" height="29.1328" style="stroke:#181818;stroke-width:1.0;" width="10" x="1807.5"
              y="365.7891"/>
        <rect fill="#FFFFFF" height="29.1328" style="stroke:#181818;stroke-width:1.0;" width="10" x="1886"
              y="513.4531"/>
        <rect fill="#FFFFFF" height="29.1328" style="stroke:#181818;stroke-width:1.0;" width="10" x="1945"
              y="894.1797"/>
        <rect fill="#FFFFFF" height="29.1328" style="stroke:#181818;stroke-width:1.0;" width="10" x="2023"
              y="629.9844"/>
        <rect fill="#FFFFFF" height="29.1328" style="stroke:#181818;stroke-width:1.0;" width="10" x="2023"
              y="746.5156"/>
        <rect fill="none" height="780.5859" style="stroke:#000000;stroke-width:1.5;" width="1662" x="426" y="179.8594"/>
        <line style="stroke:#181818;stroke-width:0.5;stroke-dasharray:5.0,5.0;" x1="91" x2="91" y1="104.5938"
              y2="1035.7109"/>
        <line style="stroke:#181818;stroke-width:0.5;stroke-dasharray:5.0,5.0;" x1="327" x2="327" y1="104.5938"
              y2="1035.7109"/>
        <line style="stroke:#181818;stroke-width:0.5;stroke-dasharray:5.0,5.0;" x1="563" x2="563" y1="104.5938"
              y2="1035.7109"/>
        <line style="stroke:#181818;stroke-width:0.5;stroke-dasharray:5.0,5.0;" x1="792" x2="792" y1="104.5938"
              y2="1035.7109"/>
        <line style="stroke:#181818;stroke-width:0.5;stroke-dasharray:5.0,5.0;" x1="1034" x2="1034" y1="104.5938"
              y2="1035.7109"/>
        <line style="stroke:#181818;stroke-width:0.5;stroke-dasharray:5.0,5.0;" x1="1281" x2="1281" y1="104.5938"
              y2="1035.7109"/>
        <line style="stroke:#181818;stroke-width:0.5;stroke-dasharray:5.0,5.0;" x1="1479" x2="1479" y1="104.5938"
              y2="1035.7109"/>
        <line style="stroke:#181818;stroke-width:0.5;stroke-dasharray:5.0,5.0;" x1="1673" x2="1673" y1="104.5938"
              y2="1035.7109"/>
        <line style="stroke:#181818;stroke-width:0.5;stroke-dasharray:5.0,5.0;" x1="1812" x2="1812" y1="104.5938"
              y2="1035.7109"/>
        <line style="stroke:#181818;stroke-width:0.5;stroke-dasharray:5.0,5.0;" x1="1891" x2="1891" y1="104.5938"
              y2="1035.7109"/>
        <line style="stroke:#181818;stroke-width:0.5;stroke-dasharray:5.0,5.0;" x1="1950" x2="1950" y1="104.5938"
              y2="1035.7109"/>
        <line style="stroke:#181818;stroke-width:0.5;stroke-dasharray:5.0,5.0;" x1="2028" x2="2028" y1="104.5938"
              y2="1035.7109"/>
        <rect fill="#E2E2F0" height="46.5938" rx="2.5" ry="2.5" style="stroke:#181818;stroke-width:0.5;" width="172"
              x="5" y="57"/>
        <text fill="#000000" font-family="sans-serif" font-size="14" font-style="italic" lengthAdjust="spacing"
              textLength="57" x="62.5" y="76.9951">&#171;Client&#187;
        </text>
        <text fill="#000000" font-family="sans-serif" font-size="14" lengthAdjust="spacing" textLength="158" x="12"
              y="93.292">:Banking Service Client
        </text>
        <rect fill="#E2E2F0" height="46.5938" rx="2.5" ry="2.5" style="stroke:#181818;stroke-width:0.5;" width="172"
              x="5" y="1034.7109"/>
        <text fill="#000000" font-family="sans-serif" font-size="14" font-style="italic" lengthAdjust="spacing"
              textLength="57" x="62.5" y="1054.7061">&#171;Client&#187;
        </text>
        <text fill="#000000" font-family="sans-serif" font-size="14" lengthAdjust="spacing" textLength="158" x="12"
              y="1071.0029">:Banking Service Client
        </text>
        <rect fill="#E2E2F0" height="46.5938" rx="2.5" ry="2.5" style="stroke:#181818;stroke-width:0.5;" width="132"
              x="261" y="57"/>
        <text fill="#000000" font-family="sans-serif" font-size="14" font-style="italic" lengthAdjust="spacing"
              textLength="68" x="293" y="76.9951">&#171;Service&#187;
        </text>
        <text fill="#000000" font-family="sans-serif" font-size="14" lengthAdjust="spacing" textLength="118" x="268"
              y="93.292">:Gateway Service
        </text>
        <rect fill="#E2E2F0" height="46.5938" rx="2.5" ry="2.5" style="stroke:#181818;stroke-width:0.5;" width="132"
              x="261" y="1034.7109"/>
        <text fill="#000000" font-family="sans-serif" font-size="14" font-style="italic" lengthAdjust="spacing"
              textLength="68" x="293" y="1054.7061">&#171;Service&#187;
        </text>
        <text fill="#000000" font-family="sans-serif" font-size="14" lengthAdjust="spacing" textLength="118" x="268"
              y="1071.0029">:Gateway Service
        </text>
        <rect fill="#E2E2F0" height="46.5938" rx="2.5" ry="2.5" style="stroke:#181818;stroke-width:0.5;" width="254"
              x="436" y="57"/>
        <text fill="#000000" font-family="sans-serif" font-size="14" font-style="italic" lengthAdjust="spacing"
              textLength="180" x="473" y="76.9951">&#171;REST Service Prosumer&#187;
        </text>
        <text fill="#000000" font-family="sans-serif" font-size="14" lengthAdjust="spacing" textLength="240" x="443"
              y="93.292">:Financial Report Service Prosumer
        </text>
        <rect fill="#E2E2F0" height="46.5938" rx="2.5" ry="2.5" style="stroke:#181818;stroke-width:0.5;" width="254"
              x="436" y="1034.7109"/>
        <text fill="#000000" font-family="sans-serif" font-size="14" font-style="italic" lengthAdjust="spacing"
              textLength="180" x="473" y="1054.7061">&#171;REST Service Prosumer&#187;
        </text>
        <text fill="#000000" font-family="sans-serif" font-size="14" lengthAdjust="spacing" textLength="240" x="443"
              y="1071.0029">:Financial Report Service Prosumer
        </text>
        <rect fill="#E2E2F0" height="46.5938" rx="2.5" ry="2.5" style="stroke:#181818;stroke-width:0.5;" width="184"
              x="700" y="57"/>
        <text fill="#000000" font-family="sans-serif" font-size="14" font-style="italic" lengthAdjust="spacing"
              textLength="170" x="707" y="76.9951">&#171;SOAP Service Provider&#187;
        </text>
        <text fill="#000000" font-family="sans-serif" font-size="14" lengthAdjust="spacing" textLength="129" x="727.5"
              y="93.292">:Bancomat Service
        </text>
        <rect fill="#E2E2F0" height="46.5938" rx="2.5" ry="2.5" style="stroke:#181818;stroke-width:0.5;" width="184"
              x="700" y="1034.7109"/>
        <text fill="#000000" font-family="sans-serif" font-size="14" font-style="italic" lengthAdjust="spacing"
              textLength="170" x="707" y="1054.7061">&#171;SOAP Service Provider&#187;
        </text>
        <text fill="#000000" font-family="sans-serif" font-size="14" lengthAdjust="spacing" textLength="129" x="727.5"
              y="1071.0029">:Bancomat Service
        </text>
        <rect fill="#E2E2F0" height="46.5938" rx="2.5" ry="2.5" style="stroke:#181818;stroke-width:0.5;" width="280"
              x="894" y="57"/>
        <text fill="#000000" font-family="sans-serif" font-size="14" font-style="italic" lengthAdjust="spacing"
              textLength="180" x="944" y="76.9951">&#171;REST Service Prosumer&#187;
        </text>
        <text fill="#000000" font-family="sans-serif" font-size="14" lengthAdjust="spacing" textLength="266" x="901"
              y="93.292">:Banking Operations Service Prosumer
        </text>
        <rect fill="#E2E2F0" height="46.5938" rx="2.5" ry="2.5" style="stroke:#181818;stroke-width:0.5;" width="280"
              x="894" y="1034.7109"/>
        <text fill="#000000" font-family="sans-serif" font-size="14" font-style="italic" lengthAdjust="spacing"
              textLength="180" x="944" y="1054.7061">&#171;REST Service Prosumer&#187;
        </text>
        <text fill="#000000" font-family="sans-serif" font-size="14" lengthAdjust="spacing" textLength="266" x="901"
              y="1071.0029">:Banking Operations Service Prosumer
        </text>
        <rect fill="#E2E2F0" height="46.5938" rx="2.5" ry="2.5" style="stroke:#181818;stroke-width:0.5;" width="194"
              x="1184" y="57"/>
        <text fill="#000000" font-family="sans-serif" font-size="14" font-style="italic" lengthAdjust="spacing"
              textLength="180" x="1191" y="76.9951">&#171;REST Service Prosumer&#187;
        </text>
        <text fill="#000000" font-family="sans-serif" font-size="14" lengthAdjust="spacing" textLength="163" x="1199.5"
              y="93.292">:Loan Service Prosumer
        </text>
        <rect fill="#E2E2F0" height="46.5938" rx="2.5" ry="2.5" style="stroke:#181818;stroke-width:0.5;" width="194"
              x="1184" y="1034.7109"/>
        <text fill="#000000" font-family="sans-serif" font-size="14" font-style="italic" lengthAdjust="spacing"
              textLength="180" x="1191" y="1054.7061">&#171;REST Service Prosumer&#187;
        </text>
        <text fill="#000000" font-family="sans-serif" font-size="14" lengthAdjust="spacing" textLength="163" x="1199.5"
              y="1071.0029">:Loan Service Prosumer
        </text>
        <rect fill="#E2E2F0" height="46.5938" rx="2.5" ry="2.5" style="stroke:#181818;stroke-width:0.5;" width="183"
              x="1388" y="57"/>
        <text fill="#000000" font-family="sans-serif" font-size="14" font-style="italic" lengthAdjust="spacing"
              textLength="169" x="1395" y="76.9951">&#171;REST Service Provider&#187;
        </text>
        <text fill="#000000" font-family="sans-serif" font-size="14" lengthAdjust="spacing" textLength="116" x="1421.5"
              y="93.292">:Account Service
        </text>
        <rect fill="#E2E2F0" height="46.5938" rx="2.5" ry="2.5" style="stroke:#181818;stroke-width:0.5;" width="183"
              x="1388" y="1034.7109"/>
        <text fill="#000000" font-family="sans-serif" font-size="14" font-style="italic" lengthAdjust="spacing"
              textLength="169" x="1395" y="1054.7061">&#171;REST Service Provider&#187;
        </text>
        <text fill="#000000" font-family="sans-serif" font-size="14" lengthAdjust="spacing" textLength="116" x="1421.5"
              y="1071.0029">:Account Service
        </text>
        <rect fill="#E2E2F0" height="46.5938" rx="2.5" ry="2.5" style="stroke:#181818;stroke-width:0.5;" width="184"
              x="1581" y="57"/>
        <text fill="#000000" font-family="sans-serif" font-size="14" font-style="italic" lengthAdjust="spacing"
              textLength="170" x="1588" y="76.9951">&#171;SOAP Service Provider&#187;
        </text>
        <text fill="#000000" font-family="sans-serif" font-size="14" lengthAdjust="spacing" textLength="163" x="1591.5"
              y="93.292">:Bank Account Services
        </text>
        <rect fill="#E2E2F0" height="46.5938" rx="2.5" ry="2.5" style="stroke:#181818;stroke-width:0.5;" width="184"
              x="1581" y="1034.7109"/>
        <text fill="#000000" font-family="sans-serif" font-size="14" font-style="italic" lengthAdjust="spacing"
              textLength="170" x="1588" y="1054.7061">&#171;SOAP Service Provider&#187;
        </text>
        <text fill="#000000" font-family="sans-serif" font-size="14" lengthAdjust="spacing" textLength="163" x="1591.5"
              y="1071.0029">:Bank Account Services
        </text>
        <text fill="#000000" font-family="sans-serif" font-size="14" lengthAdjust="spacing" textLength="69" x="1775"
              y="101.292">bancomat
        </text>
        <path d="M1794.5,52.2969 C1794.5,42.2969 1812.5,42.2969 1812.5,42.2969 C1812.5,42.2969 1830.5,42.2969 1830.5,52.2969 L1830.5,78.2969 C1830.5,88.2969 1812.5,88.2969 1812.5,88.2969 C1812.5,88.2969 1794.5,88.2969 1794.5,78.2969 L1794.5,52.2969 "
              fill="#E2E2F0" style="stroke:#181818;stroke-width:1.5;"/>
        <path d="M1794.5,52.2969 C1794.5,62.2969 1812.5,62.2969 1812.5,62.2969 C1812.5,62.2969 1830.5,62.2969 1830.5,52.2969 "
              fill="none" style="stroke:#181818;stroke-width:1.5;"/>
        <text fill="#000000" font-family="sans-serif" font-size="14" lengthAdjust="spacing" textLength="69" x="1775"
              y="1047.7061">bancomat
        </text>
        <path d="M1794.5,1061.0078 C1794.5,1051.0078 1812.5,1051.0078 1812.5,1051.0078 C1812.5,1051.0078 1830.5,1051.0078 1830.5,1061.0078 L1830.5,1087.0078 C1830.5,1097.0078 1812.5,1097.0078 1812.5,1097.0078 C1812.5,1097.0078 1794.5,1097.0078 1794.5,1087.0078 L1794.5,1061.0078 "
              fill="#E2E2F0" style="stroke:#181818;stroke-width:1.5;"/>
        <path d="M1794.5,1061.0078 C1794.5,1071.0078 1812.5,1071.0078 1812.5,1071.0078 C1812.5,1071.0078 1830.5,1071.0078 1830.5,1061.0078 "
              fill="none" style="stroke:#181818;stroke-width:1.5;"/>
        <text fill="#000000" font-family="sans-serif" font-size="14" lengthAdjust="spacing" textLength="56" x="1860"
              y="101.292">account
        </text>
        <path d="M1873,52.2969 C1873,42.2969 1891,42.2969 1891,42.2969 C1891,42.2969 1909,42.2969 1909,52.2969 L1909,78.2969 C1909,88.2969 1891,88.2969 1891,88.2969 C1891,88.2969 1873,88.2969 1873,78.2969 L1873,52.2969 "
              fill="#E2E2F0" style="stroke:#181818;stroke-width:1.5;"/>
        <path d="M1873,52.2969 C1873,62.2969 1891,62.2969 1891,62.2969 C1891,62.2969 1909,62.2969 1909,52.2969 "
              fill="none" style="stroke:#181818;stroke-width:1.5;"/>
        <text fill="#000000" font-family="sans-serif" font-size="14" lengthAdjust="spacing" textLength="56" x="1860"
              y="1047.7061">account
        </text>
        <path d="M1873,1061.0078 C1873,1051.0078 1891,1051.0078 1891,1051.0078 C1891,1051.0078 1909,1051.0078 1909,1061.0078 L1909,1087.0078 C1909,1097.0078 1891,1097.0078 1891,1097.0078 C1891,1097.0078 1873,1097.0078 1873,1087.0078 L1873,1061.0078 "
              fill="#E2E2F0" style="stroke:#181818;stroke-width:1.5;"/>
        <path d="M1873,1061.0078 C1873,1071.0078 1891,1071.0078 1891,1071.0078 C1891,1071.0078 1909,1071.0078 1909,1061.0078 "
              fill="none" style="stroke:#181818;stroke-width:1.5;"/>
        <text fill="#000000" font-family="sans-serif" font-size="14" lengthAdjust="spacing" textLength="30" x="1932"
              y="101.292">loen
        </text>
        <path d="M1932,52.2969 C1932,42.2969 1950,42.2969 1950,42.2969 C1950,42.2969 1968,42.2969 1968,52.2969 L1968,78.2969 C1968,88.2969 1950,88.2969 1950,88.2969 C1950,88.2969 1932,88.2969 1932,78.2969 L1932,52.2969 "
              fill="#E2E2F0" style="stroke:#181818;stroke-width:1.5;"/>
        <path d="M1932,52.2969 C1932,62.2969 1950,62.2969 1950,62.2969 C1950,62.2969 1968,62.2969 1968,52.2969 "
              fill="none" style="stroke:#181818;stroke-width:1.5;"/>
        <text fill="#000000" font-family="sans-serif" font-size="14" lengthAdjust="spacing" textLength="30" x="1932"
              y="1047.7061">loen
        </text>
        <path d="M1932,1061.0078 C1932,1051.0078 1950,1051.0078 1950,1051.0078 C1950,1051.0078 1968,1051.0078 1968,1061.0078 L1968,1087.0078 C1968,1097.0078 1950,1097.0078 1950,1097.0078 C1950,1097.0078 1932,1097.0078 1932,1087.0078 L1932,1061.0078 "
              fill="#E2E2F0" style="stroke:#181818;stroke-width:1.5;"/>
        <path d="M1932,1061.0078 C1932,1071.0078 1950,1071.0078 1950,1071.0078 C1950,1071.0078 1968,1071.0078 1968,1061.0078 "
              fill="none" style="stroke:#181818;stroke-width:1.5;"/>
        <text fill="#000000" font-family="sans-serif" font-size="14" lengthAdjust="spacing" textLength="94" x="1978"
              y="101.292">bank account
        </text>
        <path d="M2010,52.2969 C2010,42.2969 2028,42.2969 2028,42.2969 C2028,42.2969 2046,42.2969 2046,52.2969 L2046,78.2969 C2046,88.2969 2028,88.2969 2028,88.2969 C2028,88.2969 2010,88.2969 2010,78.2969 L2010,52.2969 "
              fill="#E2E2F0" style="stroke:#181818;stroke-width:1.5;"/>
        <path d="M2010,52.2969 C2010,62.2969 2028,62.2969 2028,62.2969 C2028,62.2969 2046,62.2969 2046,52.2969 "
              fill="none" style="stroke:#181818;stroke-width:1.5;"/>
        <text fill="#000000" font-family="sans-serif" font-size="14" lengthAdjust="spacing" textLength="94" x="1978"
              y="1047.7061">bank account
        </text>
        <path d="M2010,1061.0078 C2010,1051.0078 2028,1051.0078 2028,1051.0078 C2028,1051.0078 2046,1051.0078 2046,1061.0078 L2046,1087.0078 C2046,1097.0078 2028,1097.0078 2028,1097.0078 C2028,1097.0078 2010,1097.0078 2010,1087.0078 L2010,1061.0078 "
              fill="#E2E2F0" style="stroke:#181818;stroke-width:1.5;"/>
        <path d="M2010,1061.0078 C2010,1071.0078 2028,1071.0078 2028,1071.0078 C2028,1071.0078 2046,1071.0078 2046,1061.0078 "
              fill="none" style="stroke:#181818;stroke-width:1.5;"/>
        <rect fill="#FFFFFF" height="903.1172" style="stroke:#181818;stroke-width:1.0;" width="10" x="86" y="114.5938"/>
        <rect fill="#FFFFFF" height="881.9844" style="stroke:#181818;stroke-width:1.0;" width="10" x="322"
              y="135.7266"/>
        <rect fill="#FFFFFF" height="823.7188" style="stroke:#181818;stroke-width:1.0;" width="10" x="558"
              y="164.8594"/>
        <rect fill="#FFFFFF" height="87.3984" style="stroke:#181818;stroke-width:1.0;" width="10" x="787" y="218.125"/>
        <rect fill="#FFFFFF" height="87.3984" style="stroke:#181818;stroke-width:1.0;" width="10" x="787" y="336.6563"/>
        <rect fill="#FFFFFF" height="378.7266" style="stroke:#181818;stroke-width:1.0;" width="10" x="1029"
              y="455.1875"/>
        <rect fill="#FFFFFF" height="87.3984" style="stroke:#181818;stroke-width:1.0;" width="10" x="1276"
              y="865.0469"/>
        <rect fill="#FFFFFF" height="87.3984" style="stroke:#181818;stroke-width:1.0;" width="10" x="1474.5"
              y="484.3203"/>
        <rect fill="#FFFFFF" height="87.3984" style="stroke:#181818;stroke-width:1.0;" width="10" x="1668"
              y="600.8516"/>
        <rect fill="#FFFFFF" height="87.3984" style="stroke:#181818;stroke-width:1.0;" width="10" x="1668"
              y="717.3828"/>
        <rect fill="#FFFFFF" height="29.1328" style="stroke:#181818;stroke-width:1.0;" width="10" x="1807.5"
              y="247.2578"/>
        <rect fill="#FFFFFF" height="29.1328" style="stroke:#181818;stroke-width:1.0;" width="10" x="1807.5"
              y="365.7891"/>
        <rect fill="#FFFFFF" height="29.1328" style="stroke:#181818;stroke-width:1.0;" width="10" x="1886"
              y="513.4531"/>
        <rect fill="#FFFFFF" height="29.1328" style="stroke:#181818;stroke-width:1.0;" width="10" x="1945"
              y="894.1797"/>
        <rect fill="#FFFFFF" height="29.1328" style="stroke:#181818;stroke-width:1.0;" width="10" x="2023"
              y="629.9844"/>
        <rect fill="#FFFFFF" height="29.1328" style="stroke:#181818;stroke-width:1.0;" width="10" x="2023"
              y="746.5156"/>
        <polygon fill="#181818" points="310,131.7266,320,135.7266,310,139.7266,314,135.7266"
                 style="stroke:#181818;stroke-width:1.0;"/>
        <line style="stroke:#181818;stroke-width:1.0;" x1="96" x2="316" y1="135.7266" y2="135.7266"/>
        <text fill="#000000" font-family="sans-serif" font-size="13" lengthAdjust="spacing" textLength="207" x="103"
              y="130.6606">getFinancialReportByIdAccount()
        </text>
        <polygon fill="#181818" points="546,160.8594,556,164.8594,546,168.8594,550,164.8594"
                 style="stroke:#181818;stroke-width:1.0;"/>
        <line style="stroke:#181818;stroke-width:1.0;" x1="332" x2="552" y1="164.8594" y2="164.8594"/>
        <text fill="#000000" font-family="sans-serif" font-size="13" lengthAdjust="spacing" textLength="207" x="339"
              y="159.7935">getFinancialReportByIdAccount()
        </text>
        <path d="M426,179.8594 L496,179.8594 L496,186.9922 L486,196.9922 L426,196.9922 L426,179.8594 " fill="#EEEEEE"
              style="stroke:#000000;stroke-width:1.5;"/>
        <rect fill="none" height="780.5859" style="stroke:#000000;stroke-width:1.5;" width="1662" x="426" y="179.8594"/>
        <text fill="#000000" font-family="sans-serif" font-size="13" font-weight="bold" lengthAdjust="spacing"
              textLength="25" x="441" y="192.9263">par
        </text>
        <polygon fill="#181818" points="775,214.125,785,218.125,775,222.125,779,218.125"
                 style="stroke:#181818;stroke-width:1.0;"/>
        <line style="stroke:#181818;stroke-width:1.0;" x1="568" x2="781" y1="218.125" y2="218.125"/>
        <text fill="#000000" font-family="sans-serif" font-size="13" lengthAdjust="spacing" textLength="141" x="575"
              y="213.0591">getBancomatDetails()
        </text>
        <polygon fill="#181818" points="1795.5,243.2578,1805.5,247.2578,1795.5,251.2578,1799.5,247.2578"
                 style="stroke:#181818;stroke-width:1.0;"/>
        <line style="stroke:#181818;stroke-width:1.0;" x1="797" x2="1801.5" y1="247.2578" y2="247.2578"/>
        <text fill="#000000" font-family="sans-serif" font-size="13" lengthAdjust="spacing" textLength="226" x="804"
              y="242.1919">find bancomat by Account identifier
        </text>
        <polygon fill="#181818" points="808,272.3906,798,276.3906,808,280.3906,804,276.3906"
                 style="stroke:#181818;stroke-width:1.0;"/>
        <line style="stroke:#181818;stroke-width:1.0;stroke-dasharray:2.0,2.0;" x1="802" x2="1811.5" y1="276.3906"
              y2="276.3906"/>
        <text fill="#000000" font-family="sans-serif" font-size="13" lengthAdjust="spacing" textLength="66" x="814"
              y="271.3247">Bancomat
        </text>
        <polygon fill="#181818" points="579,301.5234,569,305.5234,579,309.5234,575,305.5234"
                 style="stroke:#181818;stroke-width:1.0;"/>
        <line style="stroke:#181818;stroke-width:1.0;stroke-dasharray:2.0,2.0;" x1="573" x2="791" y1="305.5234"
              y2="305.5234"/>
        <text fill="#000000" font-family="sans-serif" font-size="13" lengthAdjust="spacing" textLength="110" x="585"
              y="300.4575">BancomatDetails
        </text>
        <line style="stroke:#000000;stroke-width:1.0;stroke-dasharray:2.0,2.0;" x1="426" x2="2088" y1="314.5234"
              y2="314.5234"/>
        <polygon fill="#181818" points="775,332.6563,785,336.6563,775,340.6563,779,336.6563"
                 style="stroke:#181818;stroke-width:1.0;"/>
        <line style="stroke:#181818;stroke-width:1.0;" x1="568" x2="781" y1="336.6563" y2="336.6563"/>
        <text fill="#000000" font-family="sans-serif" font-size="13" lengthAdjust="spacing" textLength="178" x="575"
              y="331.5903">getBancomatTransactions()
        </text>
        <polygon fill="#181818" points="1795.5,361.7891,1805.5,365.7891,1795.5,369.7891,1799.5,365.7891"
                 style="stroke:#181818;stroke-width:1.0;"/>
        <line style="stroke:#181818;stroke-width:1.0;" x1="797" x2="1801.5" y1="365.7891" y2="365.7891"/>
        <text fill="#000000" font-family="sans-serif" font-size="13" lengthAdjust="spacing" textLength="178" x="804"
              y="360.7231">find Bancomat Transactions
        </text>
        <polygon fill="#181818" points="808,390.9219,798,394.9219,808,398.9219,804,394.9219"
                 style="stroke:#181818;stroke-width:1.0;"/>
        <line style="stroke:#181818;stroke-width:1.0;stroke-dasharray:2.0,2.0;" x1="802" x2="1811.5" y1="394.9219"
              y2="394.9219"/>
        <text fill="#000000" font-family="sans-serif" font-size="13" lengthAdjust="spacing" textLength="193" x="814"
              y="389.856">List of Bancomat Transactions
        </text>
        <polygon fill="#181818" points="579,420.0547,569,424.0547,579,428.0547,575,424.0547"
                 style="stroke:#181818;stroke-width:1.0;"/>
        <line style="stroke:#181818;stroke-width:1.0;stroke-dasharray:2.0,2.0;" x1="573" x2="791" y1="424.0547"
              y2="424.0547"/>
        <text fill="#000000" font-family="sans-serif" font-size="13" lengthAdjust="spacing" textLength="170" x="585"
              y="418.9888">GetBancomatTransactions
        </text>
        <line style="stroke:#000000;stroke-width:1.0;stroke-dasharray:2.0,2.0;" x1="426" x2="2088" y1="433.0547"
              y2="433.0547"/>
        <polygon fill="#181818" points="1017,451.1875,1027,455.1875,1017,459.1875,1021,455.1875"
                 style="stroke:#181818;stroke-width:1.0;"/>
        <line style="stroke:#181818;stroke-width:1.0;" x1="568" x2="1023" y1="455.1875" y2="455.1875"/>
        <text fill="#000000" font-family="sans-serif" font-size="13" lengthAdjust="spacing" textLength="253" x="575"
              y="450.1216">getReportBankAccountFromIdAccount()
        </text>
        <polygon fill="#181818" points="1462.5,480.3203,1472.5,484.3203,1462.5,488.3203,1466.5,484.3203"
                 style="stroke:#181818;stroke-width:1.0;"/>
        <line style="stroke:#181818;stroke-width:1.0;" x1="1039" x2="1468.5" y1="484.3203" y2="484.3203"/>
        <text fill="#000000" font-family="sans-serif" font-size="13" lengthAdjust="spacing" textLength="206" x="1046"
              y="479.2544">getAccountDetailsByAccountId()
        </text>
        <polygon fill="#181818" points="1874,509.4531,1884,513.4531,1874,517.4531,1878,513.4531"
                 style="stroke:#181818;stroke-width:1.0;"/>
        <line style="stroke:#181818;stroke-width:1.0;" x1="1484.5" x2="1880" y1="513.4531" y2="513.4531"/>
        <text fill="#000000" font-family="sans-serif" font-size="13" lengthAdjust="spacing" textLength="164" x="1491.5"
              y="508.3872">find account by idAccount
        </text>
        <polygon fill="#181818" points="1495.5,538.5859,1485.5,542.5859,1495.5,546.5859,1491.5,542.5859"
                 style="stroke:#181818;stroke-width:1.0;"/>
        <line style="stroke:#181818;stroke-width:1.0;stroke-dasharray:2.0,2.0;" x1="1489.5" x2="1890" y1="542.5859"
              y2="542.5859"/>
        <text fill="#000000" font-family="sans-serif" font-size="13" lengthAdjust="spacing" textLength="52" x="1501.5"
              y="537.52">Account
        </text>
        <polygon fill="#181818" points="1050,567.7188,1040,571.7188,1050,575.7188,1046,571.7188"
                 style="stroke:#181818;stroke-width:1.0;"/>
        <line style="stroke:#181818;stroke-width:1.0;stroke-dasharray:2.0,2.0;" x1="1044" x2="1478.5" y1="571.7188"
              y2="571.7188"/>
        <text fill="#000000" font-family="sans-serif" font-size="13" lengthAdjust="spacing" textLength="96" x="1056"
              y="566.6528">AccountDetails
        </text>
        <polygon fill="#181818" points="1656,596.8516,1666,600.8516,1656,604.8516,1660,600.8516"
                 style="stroke:#181818;stroke-width:1.0;"/>
        <line style="stroke:#181818;stroke-width:1.0;" x1="1039" x2="1662" y1="600.8516" y2="600.8516"/>
        <text fill="#000000" font-family="sans-serif" font-size="13" lengthAdjust="spacing" textLength="359" x="1046"
              y="595.7856">getBankAccountDetails() from AccountDetails Response
        </text>
        <polygon fill="#181818" points="2011,625.9844,2021,629.9844,2011,633.9844,2015,629.9844"
                 style="stroke:#181818;stroke-width:1.0;"/>
        <line style="stroke:#181818;stroke-width:1.0;" x1="1678" x2="2017" y1="629.9844" y2="629.9844"/>
        <text fill="#000000" font-family="sans-serif" font-size="13" lengthAdjust="spacing" textLength="205" x="1685"
              y="624.9185">find Bank Account from Account
        </text>
        <polygon fill="#181818" points="1689,655.1172,1679,659.1172,1689,663.1172,1685,659.1172"
                 style="stroke:#181818;stroke-width:1.0;"/>
        <line style="stroke:#181818;stroke-width:1.0;stroke-dasharray:2.0,2.0;" x1="1683" x2="2027" y1="659.1172"
              y2="659.1172"/>
        <text fill="#000000" font-family="sans-serif" font-size="13" lengthAdjust="spacing" textLength="84" x="1695"
              y="654.0513">BankAccount
        </text>
        <polygon fill="#181818" points="1050,684.25,1040,688.25,1050,692.25,1046,688.25"
                 style="stroke:#181818;stroke-width:1.0;"/>
        <line style="stroke:#181818;stroke-width:1.0;stroke-dasharray:2.0,2.0;" x1="1044" x2="1672" y1="688.25"
              y2="688.25"/>
        <text fill="#000000" font-family="sans-serif" font-size="13" lengthAdjust="spacing" textLength="128" x="1056"
              y="683.1841">BankAccountDetails
        </text>
        <polygon fill="#181818" points="1656,713.3828,1666,717.3828,1656,721.3828,1660,717.3828"
                 style="stroke:#181818;stroke-width:1.0;"/>
        <line style="stroke:#181818;stroke-width:1.0;" x1="1039" x2="1662" y1="717.3828" y2="717.3828"/>
        <text fill="#000000" font-family="sans-serif" font-size="13" lengthAdjust="spacing" textLength="396" x="1046"
              y="712.3169">getBankAccountTransactions() from AccountDetails Response
        </text>
        <polygon fill="#181818" points="2011,742.5156,2021,746.5156,2011,750.5156,2015,746.5156"
                 style="stroke:#181818;stroke-width:1.0;"/>
        <line style="stroke:#181818;stroke-width:1.0;" x1="1678" x2="2017" y1="746.5156" y2="746.5156"/>
        <text fill="#000000" font-family="sans-serif" font-size="13" lengthAdjust="spacing" textLength="283" x="1685"
              y="741.4497">find Bank Account Transaction from Account
        </text>
        <polygon fill="#181818" points="1689,771.6484,1679,775.6484,1689,779.6484,1685,775.6484"
                 style="stroke:#181818;stroke-width:1.0;"/>
        <line style="stroke:#181818;stroke-width:1.0;stroke-dasharray:2.0,2.0;" x1="1683" x2="2027" y1="775.6484"
              y2="775.6484"/>
        <text fill="#000000" font-family="sans-serif" font-size="13" lengthAdjust="spacing" textLength="200" x="1695"
              y="770.5825">List of BankAccountTransaction
        </text>
        <polygon fill="#181818" points="1050,800.7813,1040,804.7813,1050,808.7813,1046,804.7813"
                 style="stroke:#181818;stroke-width:1.0;"/>
        <line style="stroke:#181818;stroke-width:1.0;stroke-dasharray:2.0,2.0;" x1="1044" x2="1672" y1="804.7813"
              y2="804.7813"/>
        <text fill="#000000" font-family="sans-serif" font-size="13" lengthAdjust="spacing" textLength="220" x="1056"
              y="799.7153">BankAccountTransactionResponse
        </text>
        <polygon fill="#181818" points="579,829.9141,569,833.9141,579,837.9141,575,833.9141"
                 style="stroke:#181818;stroke-width:1.0;"/>
        <line style="stroke:#181818;stroke-width:1.0;stroke-dasharray:2.0,2.0;" x1="573" x2="1033" y1="833.9141"
              y2="833.9141"/>
        <text fill="#000000" font-family="sans-serif" font-size="13" lengthAdjust="spacing" textLength="188" x="585"
              y="828.8481">ReportBankAccountResponse
        </text>
        <line style="stroke:#000000;stroke-width:1.0;stroke-dasharray:2.0,2.0;" x1="426" x2="2088" y1="842.9141"
              y2="842.9141"/>
        <polygon fill="#181818" points="1264,861.0469,1274,865.0469,1264,869.0469,1268,865.0469"
                 style="stroke:#181818;stroke-width:1.0;"/>
        <line style="stroke:#181818;stroke-width:1.0;" x1="568" x2="1270" y1="865.0469" y2="865.0469"/>
        <text fill="#000000" font-family="sans-serif" font-size="13" lengthAdjust="spacing" textLength="156" x="575"
              y="859.981">getAllLoanByIdAccount()
        </text>
        <polygon fill="#181818" points="1933,890.1797,1943,894.1797,1933,898.1797,1937,894.1797"
                 style="stroke:#181818;stroke-width:1.0;"/>
        <line style="stroke:#181818;stroke-width:1.0;" x1="1286" x2="1939" y1="894.1797" y2="894.1797"/>
        <text fill="#000000" font-family="sans-serif" font-size="13" lengthAdjust="spacing" textLength="151" x="1293"
              y="889.1138">find all Loan by Account
        </text>
        <polygon fill="#181818" points="1297,919.3125,1287,923.3125,1297,927.3125,1293,923.3125"
                 style="stroke:#181818;stroke-width:1.0;"/>
        <line style="stroke:#181818;stroke-width:1.0;stroke-dasharray:2.0,2.0;" x1="1291" x2="1949" y1="923.3125"
              y2="923.3125"/>
        <text fill="#000000" font-family="sans-serif" font-size="13" lengthAdjust="spacing" textLength="73" x="1303"
              y="918.2466">List of Loan
        </text>
        <polygon fill="#181818" points="579,948.4453,569,952.4453,579,956.4453,575,952.4453"
                 style="stroke:#181818;stroke-width:1.0;"/>
        <line style="stroke:#181818;stroke-width:1.0;stroke-dasharray:2.0,2.0;" x1="573" x2="1280" y1="952.4453"
              y2="952.4453"/>
        <text fill="#000000" font-family="sans-serif" font-size="13" lengthAdjust="spacing" textLength="93" x="585"
              y="947.3794">LoanResponce
        </text>
        <polygon fill="#181818" points="343,984.5781,333,988.5781,343,992.5781,339,988.5781"
                 style="stroke:#181818;stroke-width:1.0;"/>
        <line style="stroke:#181818;stroke-width:1.0;stroke-dasharray:2.0,2.0;" x1="337" x2="562" y1="988.5781"
              y2="988.5781"/>
        <text fill="#000000" font-family="sans-serif" font-size="13" lengthAdjust="spacing" textLength="167" x="349"
              y="983.5122">Financial Report Response
        </text>
        <polygon fill="#181818" points="102,1013.7109,92,1017.7109,102,1021.7109,98,1017.7109"
                 style="stroke:#181818;stroke-width:1.0;"/>
        <line style="stroke:#181818;stroke-width:1.0;stroke-dasharray:2.0,2.0;" x1="96" x2="326" y1="1017.7109"
              y2="1017.7109"/>
        <text fill="#000000" font-family="sans-serif" font-size="13" lengthAdjust="spacing" textLength="59" x="108"
              y="1012.645">response
        </text><!--SRC=[fLN1Rk8m4BtxAqQSMY4EszvG5GbsjwXIfQAsTpHn76HXxCWshFZx7GSdSKXOaFR0mVQRD-yzJupRILsXnJquBwmm_bI9jN7IIwF1cuenBxqIiDcyIesQIrJmAIfZFNm9UvHSmDeQTzWB2_FD1bR2jy0pRdbwAnQScuFs3u-CKJClkQnGUvZCbwX9mBRb-gcaq7u2w833oyjvcMLmKRP2B_xWgIchyLl2ntMMNU1lQgyPoeeeFdz_VG-E1uIacviz-fw2F2ZuMApJygCinijhsn-Li1YYTkEASdE_f7U3Ufn5tSqHxwdd2aUghxk22mftza6_wzaKw94G0YPvZBKkAl8VoH6UUUD9Sg2Cq77tgK-rWtxHCsCCkPT7cXxWZC-oxNGwX-sDaTtEihAw1qXfCA0fccLvX3TZyajubCeH1Y2VPUGi04gf2sWiGtvgiwDSj9Ub587F2d-m6XgguKuaPq8vSQN_jqNjWdMQj34HxJYdmAxJktGUJ7aBjXfls1DccYHZW7HBqVMhDViqJGZJFyjmEeMw89v4jyjJNByLDHQ3eTPFlFUGgMmeEvtNDfeWOsUQeox6NH_py0WbwRsefDV5LUGukANg8EavpRZxEjBYtetk_hLvZy3-LV-VoeJhYk9aCaO4Z9f8pXCX4JUOYXQI396AhXTAXKUl_n42gE3egPi5fQ1-6xiFRAW_099TMfqRSsgi2nRt1tyZhRe8iCsw4Dr3ynS0]-->
    </g>
</svg>